{
.appVersion = "998";
copyright = "Copyright 2017 Google Inc. All Rights Reserved.";
customParameters = (
{
name = glyphOrder;
value = (
.notdef,
NULL,
CR,
space,
uni00A0,
uni16A0,
uni16A1,
uni16A2,
uni16A3,
uni16A4,
uni16A5,
uni16A6,
uni16A7,
uni16A8,
uni16A9,
uni16AA,
uni16AB,
uni16AC,
uni16AD,
uni16AE,
uni16AF,
uni16B0,
uni16B1,
uni16B2,
uni16B3,
uni16B4,
uni16B5,
uni16B6,
uni16B7,
uni16B8,
uni16B9,
uni16BA,
uni16BB,
uni16BC,
uni16BD,
uni16BE,
uni16BF,
uni16C0,
uni16C1,
uni16C2,
uni16C3,
uni16C4,
uni16C5,
uni16C6,
uni16C7,
uni16C8,
uni16C9,
uni16CA,
uni16CB,
uni16CC,
uni16CD,
uni16CE,
uni16CF,
uni16D0,
uni16D1,
uni16D2,
uni16D3,
uni16D4,
uni16D5,
uni16D6,
uni16D7,
uni16D8,
uni16D9,
uni16DA,
uni16DB,
uni16DC,
uni16DD,
uni16DE,
uni16DF,
uni16E0,
uni16E1,
uni16E2,
uni16E3,
uni16E4,
uni16E5,
uni16E6,
uni16E7,
uni16E8,
uni16E9,
uni16EA,
uni16EB,
uni16EC,
uni16ED,
uni16EE,
uni16EF,
uni16F0,
uni16F1,
uni16F2,
uni16F3,
uni16F4,
uni16F5,
uni16F6,
uni16F7,
uni16F8
);
},
{
name = description;
value = "Designed by Monotype design team.";
},
{
name = license;
value = "This Font Software is licensed under the SIL Open Font License, Version 1.1. This Font Software is distributed on an \"AS IS\" BASIS, WITHOUT WARRANTIES OR CONDITIONS OF ANY KIND, either express or implied. See the SIL Open Font License for the specific language, permissions and limitations governing your use of this Font Software.";
},
{
name = licenseURL;
value = "http://scripts.sil.org/OFL";
},
{
name = vendorID;
value = GOOG;
},
{
name = unicodeRanges;
value = (
0,
1,
79
);
},
{
name = trademark;
value = "Noto is a trademark of Google Inc.";
},
{
name = "Has WWS Names";
value = 1;
},
{
name = versionString;
value = "Version 2.000";
},
{
name = fsType;
value = (
);
},
{
name = codePageRanges;
value = (
"1252"
);
}
);
date = "2017-06-22 18:07:30 +0000";
designer = "Monotype Design Team";
designerURL = "http://www.monotype.com/studio";
disablesAutomaticAlignment = 1;
disablesNiceNames = 1;

glyphs = (
{
glyphname = .notdef;
lastChange = "2017-06-28 13:12:28 +0000";
layers = (
{
layerId = UUID0;
paths = (
{
closed = 1;
nodes = (
"505 0 LINE",
"505 714 LINE",
"94 714 LINE",
"94 0 LINE"
);
},
{
closed = 1;
nodes = (
"145 663 LINE",
"454 663 LINE",
"454 51 LINE",
"145 51 LINE"
);
}
);
width = 600;
}
);
},
{
glyphname = uni16A0;
lastChange = "2017-06-28 13:12:28 +0000";
layers = (
{
layerId = UUID0;
paths = (
{
closed = 1;
nodes = (
"187 0 LINE",
"187 249 LINE",
"460 249 OFFCURVE",
"666 420 OFFCURVE",
"666 703 CURVE SMOOTH",
"666 714 LINE",
"571 714 LINE",
"571 704 LINE SMOOTH",
"571 473 OFFCURVE",
"399 329 OFFCURVE",
"187 329 CURVE",
"187 440 LINE",
"325 440 OFFCURVE",
"445 557 OFFCURVE",
"445 703 CURVE SMOOTH",
"445 714 LINE",
"350 714 LINE",
"350 704 LINE SMOOTH",
"350 608 OFFCURVE",
"286 520 OFFCURVE",
"187 520 CURVE",
"187 714 LINE",
"97 714 LINE",
"97 0 LINE"
);
}
);
width = 681;
}
);
unicode = 16A0;
},
{
glyphname = uni16A1;
lastChange = "2017-06-28 13:12:28 +0000";
layers = (
{
layerId = UUID0;
paths = (
{
closed = 1;
nodes = (
"187 0 LINE",
"187 249 LINE",
"485 249 OFFCURVE",
"691 420 OFFCURVE",
"691 703 CURVE SMOOTH",
"691 714 LINE",
"596 714 LINE",
"596 704 LINE SMOOTH",
"596 473 OFFCURVE",
"422 329 OFFCURVE",
"187 329 CURVE",
"187 440 LINE",
"350 440 OFFCURVE",
"470 557 OFFCURVE",
"470 703 CURVE SMOOTH",
"470 714 LINE",
"375 714 LINE",
"375 704 LINE SMOOTH",
"375 608 OFFCURVE",
"311 520 OFFCURVE",
"187 520 CURVE",
"187 714 LINE",
"97 714 LINE",
"97 0 LINE"
);
},
{
closed = 1;
nodes = (
"298 613 OFFCURVE",
"322 631 OFFCURVE",
"322 669 CURVE SMOOTH",
"322 708 OFFCURVE",
"298 725 OFFCURVE",
"271 725 CURVE SMOOTH",
"242 725 OFFCURVE",
"219 708 OFFCURVE",
"219 669 CURVE SMOOTH",
"219 631 OFFCURVE",
"242 613 OFFCURVE",
"271 613 CURVE SMOOTH"
);
}
);
width = 706;
}
);
unicode = 16A1;
},
{
glyphname = uni16A2;
lastChange = "2017-06-28 13:12:28 +0000";
layers = (
{
layerId = UUID0;
paths = (
{
closed = 1;
nodes = (
"187 0 LINE",
"187 619 LINE",
"360 619 OFFCURVE",
"504 541 OFFCURVE",
"504 353 CURVE SMOOTH",
"504 0 LINE",
"597 0 LINE",
"597 358 LINE SMOOTH",
"597 613 OFFCURVE",
"389 714 OFFCURVE",
"192 714 CURVE SMOOTH",
"97 714 LINE",
"97 0 LINE"
);
}
);
width = 684;
}
);
unicode = 16A2;
},
{
glyphname = uni16A3;
lastChange = "2017-06-28 13:12:28 +0000";
layers = (
{
layerId = UUID0;
paths = (
{
closed = 1;
nodes = (
"187 0 LINE",
"187 481 LINE SMOOTH",
"187 507 OFFCURVE",
"184 561 OFFCURVE",
"181 594 CURVE",
"494 0 LINE",
"599 0 LINE",
"208 714 LINE",
"97 714 LINE",
"97 0 LINE"
);
},
{
closed = 1;
nodes = (
"346 0 LINE",
"346 184 LINE",
"267 184 LINE",
"267 0 LINE"
);
}
);
width = 599;
}
);
unicode = 16A3;
},
{
glyphname = uni16A4;
lastChange = "2017-06-28 13:12:28 +0000";
layers = (
{
layerId = UUID0;
paths = (
{
closed = 1;
nodes = (
"187 0 LINE",
"187 619 LINE",
"360 619 OFFCURVE",
"504 541 OFFCURVE",
"504 353 CURVE SMOOTH",
"504 0 LINE",
"597 0 LINE",
"597 358 LINE SMOOTH",
"597 613 OFFCURVE",
"389 714 OFFCURVE",
"192 714 CURVE SMOOTH",
"97 714 LINE",
"97 0 LINE"
);
},
{
closed = 1;
nodes = (
"367 282 OFFCURVE",
"391 300 OFFCURVE",
"391 338 CURVE SMOOTH",
"391 377 OFFCURVE",
"367 394 OFFCURVE",
"340 394 CURVE SMOOTH",
"311 394 OFFCURVE",
"288 377 OFFCURVE",
"288 338 CURVE SMOOTH",
"288 300 OFFCURVE",
"311 282 OFFCURVE",
"340 282 CURVE SMOOTH"
);
}
);
width = 684;
}
);
unicode = 16A4;
},
{
glyphname = uni16A5;
lastChange = "2017-06-28 13:12:28 +0000";
layers = (
{
layerId = UUID0;
paths = (
{
closed = 1;
nodes = (
"187 0 LINE",
"187 345 LINE",
"253 345 OFFCURVE",
"304 304 OFFCURVE",
"304 182 CURVE SMOOTH",
"304 0 LINE",
"392 0 LINE",
"392 198 LINE SMOOTH",
"392 359 OFFCURVE",
"298 417 OFFCURVE",
"187 417 CURVE",
"187 619 LINE",
"360 619 OFFCURVE",
"509 541 OFFCURVE",
"509 353 CURVE SMOOTH",
"509 0 LINE",
"597 0 LINE",
"597 358 LINE SMOOTH",
"597 613 OFFCURVE",
"389 714 OFFCURVE",
"192 714 CURVE SMOOTH",
"97 714 LINE",
"97 0 LINE"
);
}
);
width = 684;
}
);
unicode = 16A5;
},
{
glyphname = uni16A6;
lastChange = "2017-06-28 13:12:28 +0000";
layers = (
{
layerId = UUID0;
paths = (
{
closed = 1;
nodes = (
"182 0 LINE",
"182 88 LINE",
"330 104 OFFCURVE",
"475 158 OFFCURVE",
"475 367 CURVE SMOOTH",
"475 527 OFFCURVE",
"372 603 OFFCURVE",
"182 626 CURVE",
"182 714 LINE",
"97 714 LINE",
"97 0 LINE"
);
},
{
closed = 1;
nodes = (
"182 546 LINE",
"316 530 OFFCURVE",
"380 483 OFFCURVE",
"380 364 CURVE SMOOTH",
"380 218 OFFCURVE",
"311 185 OFFCURVE",
"182 164 CURVE"
);
}
);
width = 525;
}
);
unicode = 16A6;
},
{
glyphname = uni16A7;
lastChange = "2017-06-28 13:12:28 +0000";
layers = (
{
layerId = UUID0;
paths = (
{
closed = 1;
nodes = (
"182 0 LINE",
"182 88 LINE",
"330 104 OFFCURVE",
"475 158 OFFCURVE",
"475 367 CURVE SMOOTH",
"475 527 OFFCURVE",
"372 603 OFFCURVE",
"182 626 CURVE",
"182 714 LINE",
"97 714 LINE",
"97 0 LINE"
);
},
{
closed = 1;
nodes = (
"303 303 OFFCURVE",
"327 321 OFFCURVE",
"327 359 CURVE SMOOTH",
"327 398 OFFCURVE",
"303 415 OFFCURVE",
"276 415 CURVE SMOOTH",
"247 415 OFFCURVE",
"224 398 OFFCURVE",
"224 359 CURVE SMOOTH",
"224 321 OFFCURVE",
"247 303 OFFCURVE",
"276 303 CURVE SMOOTH"
);
},
{
closed = 1;
nodes = (
"182 546 LINE",
"316 530 OFFCURVE",
"380 483 OFFCURVE",
"380 364 CURVE SMOOTH",
"380 218 OFFCURVE",
"311 185 OFFCURVE",
"182 164 CURVE"
);
}
);
width = 525;
}
);
unicode = 16A7;
},
{
glyphname = uni16A8;
lastChange = "2017-06-28 13:12:28 +0000";
layers = (
{
layerId = UUID0;
paths = (
{
closed = 1;
nodes = (
"187 0 LINE",
"187 471 LINE",
"320 394 LINE",
"355 454 LINE",
"187 553 LINE",
"187 632 LINE",
"320 555 LINE",
"355 615 LINE",
"187 714 LINE",
"97 714 LINE",
"97 0 LINE"
);
}
);
width = 396;
}
);
unicode = 16A8;
},
{
glyphname = uni16A9;
lastChange = "2017-06-28 13:12:28 +0000";
layers = (
{
layerId = UUID0;
paths = (
{
closed = 1;
nodes = (
"187 0 LINE",
"187 470 LINE",
"383 356 LINE",
"548 471 LINE",
"548 553 LINE",
"382 437 LINE",
"187 553 LINE",
"187 632 LINE",
"383 516 LINE",
"548 632 LINE",
"548 714 LINE",
"382 598 LINE",
"187 714 LINE",
"97 714 LINE",
"97 0 LINE"
);
}
);
width = 589;
}
);
unicode = 16A9;
},
{
glyphname = uni16AA;
lastChange = "2017-06-28 13:12:28 +0000";
layers = (
{
layerId = UUID0;
paths = (
{
closed = 1;
nodes = (
"187 0 LINE",
"187 470 LINE",
"382 354 LINE",
"382 437 LINE",
"187 553 LINE",
"187 632 LINE",
"383 516 LINE",
"548 632 LINE",
"548 714 LINE",
"382 598 LINE",
"187 714 LINE",
"97 714 LINE",
"97 0 LINE"
);
}
);
width = 589;
}
);
unicode = 16AA;
},
{
glyphname = uni16AB;
lastChange = "2017-06-28 13:12:28 +0000";
layers = (
{
layerId = UUID0;
paths = (
{
closed = 1;
nodes = (
"187 0 LINE",
"187 471 LINE",
"480 300 LINE",
"515 360 LINE",
"187 553 LINE",
"187 632 LINE",
"480 461 LINE",
"515 521 LINE",
"187 714 LINE",
"97 714 LINE",
"97 0 LINE"
);
}
);
width = 556;
}
);
unicode = 16AB;
},
{
glyphname = uni16AC;
lastChange = "2017-06-28 13:12:28 +0000";
layers = (
{
layerId = UUID0;
paths = (
{
closed = 1;
nodes = (
"297 0 LINE",
"297 226 LINE",
"429 149 LINE",
"464 209 LINE",
"297 308 LINE",
"297 387 LINE",
"429 310 LINE",
"464 370 LINE",
"297 469 LINE",
"297 714 LINE",
"209 714 LINE",
"209 521 LINE",
"76 600 LINE",
"40 537 LINE",
"209 438 LINE",
"209 360 LINE",
"76 439 LINE",
"40 376 LINE",
"209 277 LINE",
"209 0 LINE"
);
}
);
width = 505;
}
);
unicode = 16AC;
},
{
glyphname = uni16AD;
lastChange = "2017-06-28 13:12:28 +0000";
layers = (
{
layerId = UUID0;
paths = (
{
closed = 1;
nodes = (
"187 0 LINE",
"187 225 LINE",
"320 148 LINE",
"355 208 LINE",
"187 307 LINE",
"187 386 LINE",
"320 309 LINE",
"355 369 LINE",
"187 468 LINE",
"187 714 LINE",
"97 714 LINE",
"97 0 LINE"
);
}
);
width = 396;
}
);
unicode = 16AD;
},
{
glyphname = uni16AE;
lastChange = "2017-06-28 13:12:28 +0000";
layers = (
{
layerId = UUID0;
paths = (
{
closed = 1;
nodes = (
"304 0 LINE",
"304 714 LINE",
"214 714 LINE",
"214 475 LINE",
"40 382 LINE",
"76 322 LINE",
"214 396 LINE",
"214 314 LINE",
"40 221 LINE",
"76 161 LINE",
"214 235 LINE",
"214 0 LINE"
);
}
);
width = 402;
}
);
unicode = 16AE;
},
{
glyphname = uni16AF;
lastChange = "2017-06-28 13:12:28 +0000";
layers = (
{
layerId = UUID0;
paths = (
{
closed = 1;
nodes = (
"302 0 LINE",
"302 279 LINE",
"476 374 LINE",
"446 436 LINE",
"302 359 LINE",
"302 440 LINE",
"476 535 LINE",
"446 597 LINE",
"302 520 LINE",
"302 714 LINE",
"214 714 LINE",
"214 475 LINE",
"40 382 LINE",
"76 322 LINE",
"214 396 LINE",
"214 314 LINE",
"40 221 LINE",
"76 161 LINE",
"214 235 LINE",
"214 0 LINE"
);
}
);
width = 517;
}
);
unicode = 16AF;
},
{
glyphname = uni16B0;
lastChange = "2017-06-28 13:12:28 +0000";
layers = (
{
layerId = UUID0;
paths = (
{
closed = 1;
nodes = (
"302 0 LINE",
"302 440 LINE",
"478 536 LINE",
"448 598 LINE",
"302 520 LINE",
"302 714 LINE",
"214 714 LINE",
"214 475 LINE",
"40 382 LINE",
"76 322 LINE",
"214 396 LINE",
"214 314 LINE",
"40 221 LINE",
"76 161 LINE",
"214 235 LINE",
"214 0 LINE"
);
}
);
width = 519;
}
);
unicode = 16B0;
},
{
glyphname = uni16B1;
lastChange = "2017-06-28 13:12:28 +0000";
layers = (
{
layerId = UUID0;
paths = (
{
closed = 1;
nodes = (
"187 0 LINE",
"187 612 LINE",
"341 525 LINE",
"240 350 LINE",
"370 0 LINE",
"466 0 LINE",
"335 345 LINE",
"417 486 LINE",
"417 584 LINE",
"187 714 LINE",
"97 714 LINE",
"97 0 LINE"
);
}
);
width = 501;
}
);
unicode = 16B1;
},
{
glyphname = uni16B2;
lastChange = "2017-06-28 13:12:28 +0000";
layers = (
{
layerId = UUID0;
paths = (
{
closed = 1;
nodes = (
"235 300 LINE",
"163 376 LINE",
"163 382 LINE",
"236 452 LINE",
"236 562 LINE",
"97 427 LINE",
"97 335 LINE",
"235 186 LINE"
);
}
);
width = 334;
}
);
unicode = 16B2;
},
{
glyphname = uni16B3;
lastChange = "2017-06-28 13:12:28 +0000";
layers = (
{
layerId = UUID0;
paths = (
{
closed = 1;
nodes = (
"187 0 LINE",
"187 236 LINE",
"337 0 LINE",
"445 0 LINE",
"187 368 LINE",
"187 714 LINE",
"97 714 LINE",
"97 0 LINE"
);
}
);
width = 445;
}
);
unicode = 16B3;
},
{
glyphname = uni16B4;
lastChange = "2017-06-28 13:12:28 +0000";
layers = (
{
layerId = UUID0;
paths = (
{
closed = 1;
nodes = (
"187 0 LINE",
"187 278 LINE",
"383 278 OFFCURVE",
"554 464 OFFCURVE",
"554 696 CURVE SMOOTH",
"554 714 LINE",
"461 714 LINE",
"461 695 LINE SMOOTH",
"461 518 OFFCURVE",
"353 355 OFFCURVE",
"187 355 CURVE",
"187 714 LINE",
"97 714 LINE",
"97 0 LINE"
);
}
);
width = 569;
}
);
unicode = 16B4;
},
{
glyphname = uni16B5;
lastChange = "2017-06-28 13:12:28 +0000";
layers = (
{
layerId = UUID0;
paths = (
{
closed = 1;
nodes = (
"187 0 LINE",
"187 278 LINE",
"383 278 OFFCURVE",
"554 464 OFFCURVE",
"554 696 CURVE SMOOTH",
"554 714 LINE",
"461 714 LINE",
"461 695 LINE SMOOTH",
"461 518 OFFCURVE",
"353 355 OFFCURVE",
"187 355 CURVE",
"187 714 LINE",
"97 714 LINE",
"97 0 LINE"
);
},
{
closed = 1;
nodes = (
"341 540 OFFCURVE",
"365 558 OFFCURVE",
"365 596 CURVE SMOOTH",
"365 635 OFFCURVE",
"341 652 OFFCURVE",
"314 652 CURVE SMOOTH",
"285 652 OFFCURVE",
"262 635 OFFCURVE",
"262 596 CURVE SMOOTH",
"262 558 OFFCURVE",
"285 540 OFFCURVE",
"314 540 CURVE SMOOTH"
);
}
);
width = 569;
}
);
unicode = 16B5;
},
{
glyphname = uni16B6;
lastChange = "2017-06-28 13:12:28 +0000";
layers = (
{
layerId = UUID0;
paths = (
{
closed = 1;
nodes = (
"207 0 LINE",
"207 216 LINE",
"231 226 OFFCURVE",
"249 248 OFFCURVE",
"257 282 CURVE",
"431 310 OFFCURVE",
"574 484 OFFCURVE",
"574 696 CURVE SMOOTH",
"574 714 LINE",
"481 714 LINE",
"481 695 LINE SMOOTH",
"481 535 OFFCURVE",
"393 387 OFFCURVE",
"254 359 CURVE",
"246 388 OFFCURVE",
"228 406 OFFCURVE",
"207 416 CURVE",
"207 714 LINE",
"117 714 LINE",
"117 416 LINE",
"88 402 OFFCURVE",
"67 371 OFFCURVE",
"67 316 CURVE SMOOTH",
"67 263 OFFCURVE",
"87 232 OFFCURVE",
"117 217 CURVE",
"117 0 LINE"
);
}
);
width = 589;
}
);
unicode = 16B6;
},
{
glyphname = uni16B7;
lastChange = "2017-06-28 13:12:28 +0000";
layers = (
{
layerId = UUID0;
paths = (
{
closed = 1;
nodes = (
"99 0 LINE",
"291 310 LINE",
"480 0 LINE",
"582 0 LINE",
"344 374 LINE",
"565 714 LINE",
"470 714 LINE",
"294 434 LINE",
"119 714 LINE",
"19 714 LINE",
"241 372 LINE",
"4 0 LINE"
);
}
);
width = 586;
}
);
unicode = 16B7;
},
{
glyphname = uni16B8;
lastChange = "2017-06-28 13:12:28 +0000";
layers = (
{
layerId = UUID0;
paths = (
{
closed = 1;
nodes = (
"127 0 LINE",
"319 310 LINE",
"516 0 LINE",
"604 0 LINE",
"501 162 LINE",
"601 349 LINE",
"601 361 LINE",
"493 566 LINE",
"589 714 LINE",
"497 714 LINE",
"322 434 LINE",
"147 714 LINE",
"55 714 LINE",
"151 566 LINE",
"43 361 LINE",
"43 349 LINE",
"143 162 LINE",
"40 0 LINE"
);
},
{
closed = 1;
nodes = (
"120 353 LINE",
"120 357 LINE",
"191 494 LINE",
"269 372 LINE",
"183 236 LINE"
);
},
{
closed = 1;
nodes = (
"372 374 LINE",
"450 497 LINE",
"524 357 LINE",
"524 353 LINE",
"459 230 LINE"
);
}
);
width = 644;
}
);
unicode = 16B8;
},
{
glyphname = uni16B9;
lastChange = "2017-06-28 13:12:28 +0000";
layers = (
{
layerId = UUID0;
paths = (
{
closed = 1;
nodes = (
"187 0 LINE",
"187 228 LINE",
"404 436 LINE",
"404 520 LINE",
"187 714 LINE",
"97 714 LINE",
"97 0 LINE"
);
},
{
closed = 1;
nodes = (
"187 614 LINE",
"330 479 LINE",
"187 336 LINE"
);
}
);
width = 439;
}
);
unicode = 16B9;
},
{
glyphname = uni16BA;
lastChange = "2017-06-28 13:12:28 +0000";
layers = (
{
layerId = UUID0;
paths = (
{
closed = 1;
nodes = (
"187 0 LINE",
"187 416 LINE",
"543 209 LINE",
"543 0 LINE",
"633 0 LINE",
"633 714 LINE",
"543 714 LINE",
"543 299 LINE",
"187 510 LINE",
"187 714 LINE",
"97 714 LINE",
"97 0 LINE"
);
}
);
width = 731;
}
);
unicode = 16BA;
},
{
glyphname = uni16BB;
lastChange = "2017-06-28 13:12:28 +0000";
layers = (
{
layerId = UUID0;
paths = (
{
closed = 1;
nodes = (
"187 0 LINE",
"187 324 LINE",
"543 117 LINE",
"543 0 LINE",
"633 0 LINE",
"633 714 LINE",
"543 714 LINE",
"543 393 LINE",
"187 604 LINE",
"187 714 LINE",
"97 714 LINE",
"97 0 LINE"
);
},
{
closed = 1;
nodes = (
"187 413 LINE",
"187 515 LINE",
"543 308 LINE",
"543 202 LINE"
);
}
);
width = 731;
}
);
unicode = 16BB;
},
{
glyphname = uni16BC;
lastChange = "2017-06-28 13:12:28 +0000";
layers = (
{
layerId = UUID0;
paths = (
{
closed = 1;
nodes = (
"297 0 LINE",
"297 147 LINE SMOOTH",
"297 188 OFFCURVE",
"294 247 OFFCURVE",
"292 281 CURVE",
"432 187 LINE",
"472 251 LINE",
"324 350 LINE",
"472 450 LINE",
"432 515 LINE",
"297 424 LINE",
"297 714 LINE",
"214 714 LINE",
"214 425 LINE",
"80 515 LINE",
"40 450 LINE",
"188 350 LINE",
"40 251 LINE",
"80 187 LINE",
"220 281 LINE",
"217 247 OFFCURVE",
"214 188 OFFCURVE",
"214 147 CURVE SMOOTH",
"214 0 LINE"
);
}
);
width = 513;
}
);
unicode = 16BC;
},
{
glyphname = uni16BD;
lastChange = "2017-06-28 13:12:28 +0000";
layers = (
{
layerId = UUID0;
paths = (
{
closed = 1;
nodes = (
"207 0 LINE",
"207 270 LINE",
"238 284 OFFCURVE",
"260 316 OFFCURVE",
"260 370 CURVE SMOOTH",
"260 425 OFFCURVE",
"238 456 OFFCURVE",
"207 470 CURVE",
"207 714 LINE",
"117 714 LINE",
"117 470 LINE",
"88 456 OFFCURVE",
"67 425 OFFCURVE",
"67 370 CURVE SMOOTH",
"67 317 OFFCURVE",
"87 286 OFFCURVE",
"117 271 CURVE",
"117 0 LINE"
);
}
);
width = 327;
}
);
unicode = 16BD;
},
{
glyphname = uni16BE;
lastChange = "2017-06-28 13:12:28 +0000";
layers = (
{
layerId = UUID0;
paths = (
{
closed = 1;
nodes = (
"299 0 LINE",
"299 296 LINE",
"432 219 LINE",
"467 279 LINE",
"299 378 LINE",
"299 714 LINE",
"209 714 LINE",
"209 431 LINE",
"76 510 LINE",
"40 447 LINE",
"209 348 LINE",
"209 0 LINE"
);
}
);
width = 508;
}
);
unicode = 16BE;
},
{
glyphname = uni16BF;
lastChange = "2017-06-28 13:12:28 +0000";
layers = (
{
layerId = UUID0;
paths = (
{
closed = 1;
nodes = (
"187 0 LINE",
"187 296 LINE",
"320 219 LINE",
"355 279 LINE",
"187 378 LINE",
"187 714 LINE",
"97 714 LINE",
"97 0 LINE"
);
}
);
width = 396;
}
);
unicode = 16BF;
},
{
glyphname = uni16C0;
lastChange = "2017-06-28 13:12:28 +0000";
layers = (
{
layerId = UUID0;
paths = (
{
closed = 1;
nodes = (
"299 0 LINE",
"299 270 LINE",
"307 273 OFFCURVE",
"314 278 OFFCURVE",
"320 284 CURVE",
"432 219 LINE",
"467 279 LINE",
"350 348 LINE",
"351 355 OFFCURVE",
"352 362 OFFCURVE",
"352 370 CURVE SMOOTH",
"352 425 OFFCURVE",
"330 456 OFFCURVE",
"299 470 CURVE",
"299 714 LINE",
"209 714 LINE",
"209 470 LINE",
"198 465 OFFCURVE",
"189 458 OFFCURVE",
"181 448 CURVE",
"76 510 LINE",
"40 447 LINE",
"159 378 LINE",
"159 370 LINE SMOOTH",
"159 317 OFFCURVE",
"179 286 OFFCURVE",
"209 271 CURVE",
"209 0 LINE"
);
}
);
width = 508;
}
);
unicode = 16C0;
},
{
glyphname = uni16C1;
lastChange = "2017-06-28 13:12:28 +0000";
layers = (
{
layerId = UUID0;
paths = (
{
closed = 1;
nodes = (
"188 0 LINE",
"188 714 LINE",
"96 714 LINE",
"96 0 LINE"
);
}
);
width = 285;
}
);
unicode = 16C1;
},
{
glyphname = uni16C2;
lastChange = "2017-06-28 13:12:28 +0000";
layers = (
{
layerId = UUID0;
paths = (
{
closed = 1;
nodes = (
"207 0 LINE",
"207 270 LINE",
"238 284 OFFCURVE",
"260 316 OFFCURVE",
"260 370 CURVE SMOOTH",
"260 425 OFFCURVE",
"238 456 OFFCURVE",
"207 470 CURVE",
"207 714 LINE",
"117 714 LINE",
"117 470 LINE",
"88 456 OFFCURVE",
"67 425 OFFCURVE",
"67 370 CURVE SMOOTH",
"67 317 OFFCURVE",
"87 286 OFFCURVE",
"117 271 CURVE",
"117 0 LINE"
);
}
);
width = 327;
}
);
unicode = 16C2;
},
{
glyphname = uni16C3;
lastChange = "2017-06-28 13:12:28 +0000";
layers = (
{
layerId = UUID0;
paths = (
{
closed = 1;
nodes = (
"411 378 LINE",
"411 470 LINE",
"336 575 LINE",
"267 523 LINE",
"342 419 LINE",
"342 413 LINE",
"272 343 LINE",
"272 243 LINE"
);
},
{
closed = 1;
nodes = (
"241 445 LINE",
"166 549 LINE",
"166 555 LINE",
"236 625 LINE",
"236 725 LINE",
"97 590 LINE",
"97 498 LINE",
"172 393 LINE"
);
}
);
width = 512;
}
);
unicode = 16C3;
},
{
glyphname = uni16C4;
lastChange = "2017-06-28 13:12:28 +0000";
layers = (
{
layerId = UUID0;
paths = (
{
closed = 1;
nodes = (
"289 0 LINE",
"289 187 LINE",
"437 320 LINE",
"437 404 LINE",
"289 524 LINE",
"289 714 LINE",
"199 714 LINE",
"199 524 LINE",
"50 404 LINE",
"50 323 LINE",
"197 189 LINE",
"197 0 LINE"
);
},
{
closed = 1;
nodes = (
"115 364 LINE",
"199 431 LINE",
"199 288 LINE"
);
},
{
closed = 1;
nodes = (
"289 431 LINE",
"372 364 LINE",
"289 288 LINE"
);
}
);
width = 487;
}
);
unicode = 16C4;
},
{
glyphname = uni16C5;
lastChange = "2017-06-28 13:12:28 +0000";
layers = (
{
layerId = UUID0;
paths = (
{
closed = 1;
nodes = (
"304 0 LINE",
"304 352 LINE",
"478 447 LINE",
"448 509 LINE",
"304 432 LINE",
"304 714 LINE",
"214 714 LINE",
"214 386 LINE",
"40 293 LINE",
"76 233 LINE",
"214 307 LINE",
"214 0 LINE"
);
}
);
width = 519;
}
);
unicode = 16C5;
},
{
glyphname = uni16C6;
lastChange = "2017-06-28 13:12:28 +0000";
layers = (
{
layerId = UUID0;
paths = (
{
closed = 1;
nodes = (
"304 0 LINE",
"304 714 LINE",
"214 714 LINE",
"214 386 LINE",
"40 293 LINE",
"76 233 LINE",
"214 307 LINE",
"214 0 LINE"
);
}
);
width = 402;
}
);
unicode = 16C6;
},
{
glyphname = uni16C7;
lastChange = "2017-06-28 13:12:28 +0000";
layers = (
{
layerId = UUID0;
paths = (
{
closed = 1;
nodes = (
"299 0 LINE",
"299 632 LINE",
"432 555 LINE",
"467 615 LINE",
"299 714 LINE",
"209 714 LINE",
"209 83 LINE",
"76 162 LINE",
"40 99 LINE",
"209 0 LINE"
);
}
);
width = 508;
}
);
unicode = 16C7;
},
{
glyphname = uni16C8;
lastChange = "2017-06-28 13:12:28 +0000";
layers = (
{
layerId = UUID0;
paths = (
{
closed = 1;
nodes = (
"187 0 LINE",
"312 116 LINE",
"448 0 LINE",
"448 95 LINE",
"313 211 LINE",
"187 97 LINE",
"187 614 LINE",
"313 503 LINE",
"448 619 LINE",
"448 714 LINE",
"312 598 LINE",
"187 714 LINE",
"97 714 LINE",
"97 0 LINE"
);
}
);
width = 459;
}
);
unicode = 16C8;
},
{
glyphname = uni16C9;
lastChange = "2017-06-28 13:12:28 +0000";
layers = (
{
layerId = UUID0;
paths = (
{
closed = 1;
nodes = (
"348 0 LINE",
"348 346 LINE",
"606 714 LINE",
"498 714 LINE",
"348 478 LINE",
"348 714 LINE",
"258 714 LINE",
"258 478 LINE",
"108 714 LINE",
"0 714 LINE",
"258 346 LINE",
"258 0 LINE"
);
}
);
width = 607;
}
);
unicode = 16C9;
},
{
glyphname = uni16CA;
lastChange = "2017-06-28 13:12:28 +0000";
layers = (
{
layerId = UUID0;
paths = (
{
closed = 1;
nodes = (
"325 0 LINE",
"158 180 LINE",
"158 184 LINE",
"335 364 LINE",
"335 369 LINE",
"158 530 LINE",
"158 534 LINE",
"345 714 LINE",
"223 714 LINE",
"38 534 LINE",
"38 530 LINE",
"213 368 LINE",
"213 364 LINE",
"38 184 LINE",
"38 180 LINE",
"203 0 LINE"
);
}
);
width = 381;
}
);
unicode = 16CA;
},
{
glyphname = uni16CB;
lastChange = "2017-06-28 13:12:28 +0000";
layers = (
{
layerId = UUID0;
paths = (
{
closed = 1;
nodes = (
"555 0 LINE",
"555 530 LINE",
"465 530 LINE",
"187 319 LINE",
"187 714 LINE",
"97 714 LINE",
"97 217 LINE",
"187 217 LINE",
"465 424 LINE",
"465 0 LINE"
);
}
);
width = 653;
}
);
unicode = 16CB;
},
{
glyphname = uni16CC;
lastChange = "2017-06-28 13:12:28 +0000";
layers = (
{
layerId = UUID0;
paths = (
{
closed = 1;
nodes = (
"187 460 LINE",
"187 714 LINE",
"97 714 LINE",
"97 460 LINE"
);
}
);
width = 285;
}
);
unicode = 16CC;
},
{
glyphname = uni16CD;
lastChange = "2017-06-28 13:12:28 +0000";
layers = (
{
layerId = UUID0;
paths = (
{
closed = 1;
nodes = (
"217 262 OFFCURVE",
"260 294 OFFCURVE",
"260 370 CURVE SMOOTH",
"260 425 OFFCURVE",
"238 456 OFFCURVE",
"207 470 CURVE",
"207 714 LINE",
"117 714 LINE",
"117 470 LINE",
"88 456 OFFCURVE",
"67 425 OFFCURVE",
"67 370 CURVE SMOOTH",
"67 294 OFFCURVE",
"109 262 OFFCURVE",
"163 262 CURVE SMOOTH"
);
}
);
width = 327;
}
);
unicode = 16CD;
},
{
glyphname = uni16CE;
lastChange = "2017-06-28 13:12:28 +0000";
layers = (
{
layerId = UUID0;
paths = (
{
closed = 1;
nodes = (
"304 271 LINE",
"478 366 LINE",
"448 428 LINE",
"304 351 LINE",
"304 714 LINE",
"214 714 LINE",
"214 354 LINE",
"81 433 LINE",
"45 370 LINE",
"214 271 LINE"
);
}
);
width = 519;
}
);
unicode = 16CE;
},
{
glyphname = uni16CF;
lastChange = "2017-06-28 13:12:28 +0000";
layers = (
{
layerId = UUID0;
paths = (
{
closed = 1;
nodes = (
"304 0 LINE",
"304 632 LINE",
"437 555 LINE",
"472 615 LINE",
"304 714 LINE",
"214 714 LINE",
"40 621 LINE",
"76 561 LINE",
"214 635 LINE",
"214 0 LINE"
);
}
);
width = 513;
}
);
unicode = 16CF;
},
{
glyphname = uni16D0;
lastChange = "2017-06-28 13:12:28 +0000";
layers = (
{
layerId = UUID0;
paths = (
{
closed = 1;
nodes = (
"305 0 LINE",
"305 714 LINE",
"214 714 LINE",
"40 621 LINE",
"76 559 LINE",
"212 633 LINE",
"212 0 LINE"
);
}
);
width = 403;
}
);
unicode = 16D0;
},
{
glyphname = uni16D1;
lastChange = "2017-06-28 13:12:28 +0000";
layers = (
{
layerId = UUID0;
paths = (
{
closed = 1;
nodes = (
"304 0 LINE",
"304 270 LINE",
"335 284 OFFCURVE",
"357 316 OFFCURVE",
"357 370 CURVE SMOOTH",
"357 425 OFFCURVE",
"335 456 OFFCURVE",
"304 470 CURVE",
"304 714 LINE",
"214 714 LINE",
"40 621 LINE",
"76 561 LINE",
"214 635 LINE",
"214 470 LINE",
"185 456 OFFCURVE",
"164 425 OFFCURVE",
"164 370 CURVE SMOOTH",
"164 317 OFFCURVE",
"184 286 OFFCURVE",
"214 271 CURVE",
"214 0 LINE"
);
}
);
width = 424;
}
);
unicode = 16D1;
},
{
glyphname = uni16D2;
lastChange = "2017-06-28 13:12:28 +0000";
layers = (
{
layerId = UUID0;
paths = (
{
closed = 1;
nodes = (
"187 0 LINE",
"464 176 LINE",
"464 260 LINE",
"295 361 LINE",
"464 466 LINE",
"464 550 LINE",
"187 714 LINE",
"97 714 LINE",
"97 0 LINE"
);
},
{
closed = 1;
nodes = (
"187 334 LINE",
"380 219 LINE",
"187 96 LINE"
);
},
{
closed = 1;
nodes = (
"187 624 LINE",
"380 509 LINE",
"187 386 LINE"
);
}
);
width = 509;
}
);
unicode = 16D2;
},
{
glyphname = uni16D3;
lastChange = "2017-06-28 13:12:28 +0000";
layers = (
{
layerId = UUID0;
paths = (
{
closed = 1;
nodes = (
"187 0 LINE",
"187 280 LINE",
"361 375 LINE",
"331 437 LINE",
"187 360 LINE",
"187 441 LINE",
"361 536 LINE",
"331 598 LINE",
"187 521 LINE",
"187 714 LINE",
"97 714 LINE",
"97 0 LINE"
);
}
);
width = 402;
}
);
unicode = 16D3;
},
{
glyphname = uni16D4;
lastChange = "2017-06-28 13:12:28 +0000";
layers = (
{
layerId = UUID0;
paths = (
{
closed = 1;
nodes = (
"248 0 LINE SMOOTH",
"401 0 OFFCURVE",
"496 73 OFFCURVE",
"496 203 CURVE SMOOTH",
"496 307 OFFCURVE",
"426 356 OFFCURVE",
"336 371 CURVE",
"336 376 LINE",
"424 392 OFFCURVE",
"490 432 OFFCURVE",
"490 538 CURVE SMOOTH",
"490 657 OFFCURVE",
"394 714 OFFCURVE",
"250 714 CURVE SMOOTH",
"97 714 LINE",
"97 0 LINE"
);
},
{
closed = 1;
nodes = (
"306 166 OFFCURVE",
"322 179 OFFCURVE",
"322 207 CURVE SMOOTH",
"322 236 OFFCURVE",
"306 248 OFFCURVE",
"285 248 CURVE SMOOTH",
"263 248 OFFCURVE",
"247 236 OFFCURVE",
"247 207 CURVE SMOOTH",
"247 179 OFFCURVE",
"263 166 OFFCURVE",
"285 166 CURVE SMOOTH"
);
},
{
closed = 1;
nodes = (
"187 337 LINE",
"229 337 LINE SMOOTH",
"356 337 OFFCURVE",
"400 278 OFFCURVE",
"400 207 CURVE SMOOTH",
"400 133 OFFCURVE",
"357 76 OFFCURVE",
"231 76 CURVE SMOOTH",
"187 76 LINE"
);
},
{
closed = 1;
nodes = (
"306 486 OFFCURVE",
"322 499 OFFCURVE",
"322 527 CURVE SMOOTH",
"322 556 OFFCURVE",
"306 568 OFFCURVE",
"285 568 CURVE SMOOTH",
"263 568 OFFCURVE",
"247 556 OFFCURVE",
"247 527 CURVE SMOOTH",
"247 499 OFFCURVE",
"263 486 OFFCURVE",
"285 486 CURVE SMOOTH"
);
},
{
closed = 1;
nodes = (
"187 637 LINE",
"228 637 LINE SMOOTH",
"356 637 OFFCURVE",
"397 595 OFFCURVE",
"397 529 CURVE SMOOTH",
"397 460 OFFCURVE",
"357 410 OFFCURVE",
"230 410 CURVE SMOOTH",
"187 410 LINE"
);
}
);
width = 550;
}
);
unicode = 16D4;
},
{
glyphname = uni16D5;
lastChange = "2017-06-28 13:12:28 +0000";
layers = (
{
layerId = UUID0;
paths = (
{
closed = 1;
nodes = (
"187 0 LINE",
"187 362 LINE",
"405 0 LINE",
"512 0 LINE",
"275 367 LINE",
"504 714 LINE",
"402 714 LINE",
"187 368 LINE",
"187 714 LINE",
"97 714 LINE",
"97 0 LINE"
);
}
);
width = 517;
}
);
unicode = 16D5;
},
{
glyphname = uni16D6;
lastChange = "2017-06-28 13:12:28 +0000";
layers = (
{
layerId = UUID0;
paths = (
{
closed = 1;
nodes = (
"187 0 LINE",
"187 614 LINE",
"363 491 LINE",
"548 615 LINE",
"548 0 LINE",
"638 0 LINE",
"638 714 LINE",
"548 714 LINE",
"363 588 LINE",
"187 714 LINE",
"97 714 LINE",
"97 0 LINE"
);
}
);
width = 736;
}
);
unicode = 16D6;
},
{
glyphname = uni16D7;
lastChange = "2017-06-28 13:12:28 +0000";
layers = (
{
layerId = UUID0;
paths = (
{
closed = 1;
nodes = (
"184 0 LINE",
"184 244 LINE",
"382 428 LINE",
"579 245 LINE",
"579 0 LINE",
"666 0 LINE",
"666 714 LINE",
"579 714 LINE",
"381 530 LINE",
"184 714 LINE",
"97 714 LINE",
"97 0 LINE"
);
},
{
closed = 1;
nodes = (
"184 610 LINE",
"326 480 LINE",
"184 347 LINE"
);
},
{
closed = 1;
nodes = (
"437 479 LINE",
"579 611 LINE",
"579 347 LINE"
);
}
);
width = 754;
}
);
unicode = 16D7;
},
{
glyphname = uni16D8;
lastChange = "2017-06-28 13:12:28 +0000";
layers = (
{
layerId = UUID0;
paths = (
{
closed = 1;
nodes = (
"379 0 LINE",
"379 440 LINE",
"496 451 OFFCURVE",
"615 516 OFFCURVE",
"647 714 CURVE",
"552 714 LINE",
"531 609 OFFCURVE",
"487 534 OFFCURVE",
"379 519 CURVE",
"379 714 LINE",
"283 714 LINE",
"283 519 LINE",
"175 534 OFFCURVE",
"131 609 OFFCURVE",
"110 714 CURVE",
"15 714 LINE",
"47 516 OFFCURVE",
"166 451 OFFCURVE",
"283 440 CURVE",
"283 0 LINE"
);
}
);
width = 662;
}
);
unicode = 16D8;
},
{
glyphname = uni16D9;
lastChange = "2017-06-28 13:12:28 +0000";
layers = (
{
layerId = UUID0;
paths = (
{
closed = 1;
nodes = (
"219 0 LINE",
"219 519 LINE",
"250 533 OFFCURVE",
"272 564 OFFCURVE",
"272 618 CURVE SMOOTH",
"272 695 OFFCURVE",
"229 725 OFFCURVE",
"175 725 CURVE SMOOTH",
"121 725 OFFCURVE",
"79 695 OFFCURVE",
"79 618 CURVE SMOOTH",
"79 564 OFFCURVE",
"98 533 OFFCURVE",
"129 519 CURVE",
"129 0 LINE"
);
}
);
width = 352;
}
);
unicode = 16D9;
},
{
glyphname = uni16DA;
lastChange = "2017-06-28 13:12:28 +0000";
layers = (
{
layerId = UUID0;
paths = (
{
closed = 1;
nodes = (
"190 0 LINE",
"190 630 LINE",
"321 553 LINE",
"356 615 LINE",
"188 714 LINE",
"97 714 LINE",
"97 0 LINE"
);
}
);
width = 397;
}
);
unicode = 16DA;
},
{
glyphname = uni16DB;
lastChange = "2017-06-28 13:12:28 +0000";
layers = (
{
layerId = UUID0;
paths = (
{
closed = 1;
nodes = (
"220 0 LINE",
"220 270 LINE",
"251 284 OFFCURVE",
"273 316 OFFCURVE",
"273 370 CURVE SMOOTH",
"273 425 OFFCURVE",
"251 456 OFFCURVE",
"220 470 CURVE",
"220 632 LINE",
"353 555 LINE",
"388 615 LINE",
"220 714 LINE",
"130 714 LINE",
"130 470 LINE",
"101 456 OFFCURVE",
"80 425 OFFCURVE",
"80 370 CURVE SMOOTH",
"80 317 OFFCURVE",
"100 286 OFFCURVE",
"130 271 CURVE",
"130 0 LINE"
);
}
);
width = 429;
}
);
unicode = 16DB;
},
{
glyphname = uni16DC;
lastChange = "2017-06-28 13:12:28 +0000";
layers = (
{
layerId = UUID0;
paths = (
{
closed = 1;
nodes = (
"315 209 LINE",
"433 335 LINE",
"433 427 LINE",
"315 542 LINE",
"215 542 LINE",
"97 427 LINE",
"97 335 LINE",
"215 209 LINE"
);
},
{
closed = 1;
nodes = (
"163 376 LINE",
"163 382 LINE",
"250 467 LINE",
"280 467 LINE",
"367 382 LINE",
"367 376 LINE",
"280 284 LINE",
"250 284 LINE"
);
}
);
width = 531;
}
);
unicode = 16DC;
},
{
glyphname = uni16DD;
lastChange = "2017-06-28 13:12:28 +0000";
layers = (
{
layerId = UUID0;
paths = (
{
closed = 1;
nodes = (
"156 0 LINE",
"293 128 LINE",
"431 0 LINE",
"543 0 LINE",
"351 182 LINE",
"552 370 LINE",
"351 544 LINE",
"544 714 LINE",
"432 714 LINE",
"293 594 LINE",
"155 714 LINE",
"43 714 LINE",
"236 544 LINE",
"35 370 LINE",
"236 182 LINE",
"44 0 LINE"
);
},
{
closed = 1;
nodes = (
"154 370 LINE",
"293 493 LINE",
"433 370 LINE",
"293 237 LINE"
);
}
);
width = 588;
}
);
unicode = 16DD;
},
{
glyphname = uni16DE;
lastChange = "2017-06-28 13:12:28 +0000";
layers = (
{
layerId = UUID0;
paths = (
{
closed = 1;
nodes = (
"180 0 LINE",
"366 290 LINE",
"555 0 LINE",
"633 0 LINE",
"633 714 LINE",
"555 714 LINE",
"366 423 LINE",
"180 714 LINE",
"97 714 LINE",
"97 0 LINE"
);
},
{
closed = 1;
nodes = (
"180 578 LINE",
"184 578 LINE",
"323 357 LINE",
"184 135 LINE",
"180 135 LINE"
);
},
{
closed = 1;
nodes = (
"409 357 LINE",
"551 584 LINE",
"555 584 LINE",
"555 129 LINE",
"551 129 LINE"
);
}
);
width = 731;
}
);
unicode = 16DE;
},
{
glyphname = uni16DF;
lastChange = "2017-06-28 13:12:28 +0000";
layers = (
{
layerId = UUID0;
paths = (
{
closed = 1;
nodes = (
"147 0 LINE",
"291 175 LINE",
"435 0 LINE",
"544 0 LINE",
"349 230 LINE",
"544 461 LINE",
"336 714 LINE",
"242 714 LINE",
"38 461 LINE",
"233 230 LINE",
"38 0 LINE"
);
},
{
closed = 1;
nodes = (
"141 463 LINE",
"289 648 LINE",
"441 463 LINE",
"291 286 LINE"
);
}
);
width = 582;
}
);
unicode = 16DF;
},
{
glyphname = uni16E0;
lastChange = "2017-06-28 13:12:28 +0000";
layers = (
{
layerId = UUID0;
paths = (
{
closed = 1;
nodes = (
"361 0 LINE",
"361 614 LINE",
"487 503 LINE",
"622 619 LINE",
"622 714 LINE",
"486 598 LINE",
"361 714 LINE",
"271 714 LINE",
"146 598 LINE",
"10 714 LINE",
"10 624 LINE",
"145 508 LINE",
"271 624 LINE",
"271 0 LINE"
);
}
);
width = 633;
}
);
unicode = 16E0;
},
{
glyphname = uni16E1;
lastChange = "2017-06-28 13:12:28 +0000";
layers = (
{
layerId = UUID0;
paths = (
{
closed = 1;
nodes = (
"297 0 LINE",
"297 147 LINE SMOOTH",
"297 188 OFFCURVE",
"294 247 OFFCURVE",
"292 281 CURVE",
"432 187 LINE",
"472 251 LINE",
"324 350 LINE",
"472 450 LINE",
"432 515 LINE",
"297 424 LINE",
"297 714 LINE",
"214 714 LINE",
"214 425 LINE",
"80 515 LINE",
"40 450 LINE",
"188 350 LINE",
"40 251 LINE",
"80 187 LINE",
"220 281 LINE",
"217 247 OFFCURVE",
"214 188 OFFCURVE",
"214 147 CURVE SMOOTH",
"214 0 LINE"
);
}
);
width = 513;
}
);
unicode = 16E1;
},
{
glyphname = uni16E2;
lastChange = "2017-06-28 13:12:28 +0000";
layers = (
{
layerId = UUID0;
paths = (
{
closed = 1;
nodes = (
"146 116 LINE",
"271 0 LINE",
"361 0 LINE",
"361 614 LINE",
"487 503 LINE",
"622 619 LINE",
"622 714 LINE",
"486 598 LINE",
"361 714 LINE",
"271 714 LINE",
"271 97 LINE",
"145 211 LINE",
"10 95 LINE",
"10 0 LINE"
);
}
);
width = 633;
}
);
unicode = 16E2;
},
{
glyphname = uni16E3;
lastChange = "2017-06-28 13:12:28 +0000";
layers = (
{
layerId = UUID0;
paths = (
{
closed = 1;
nodes = (
"108 0 LINE",
"258 236 LINE",
"258 0 LINE",
"348 0 LINE",
"348 236 LINE",
"498 0 LINE",
"606 0 LINE",
"348 368 LINE",
"348 714 LINE",
"258 714 LINE",
"258 368 LINE",
"0 0 LINE"
);
}
);
width = 607;
}
);
unicode = 16E3;
},
{
glyphname = uni16E4;
lastChange = "2017-06-28 13:12:28 +0000";
layers = (
{
layerId = UUID0;
paths = (
{
closed = 1;
nodes = (
"132 0 LINE",
"304 272 LINE",
"304 0 LINE",
"379 0 LINE",
"379 266 LINE",
"551 0 LINE",
"646 0 LINE",
"538 160 LINE",
"640 349 LINE",
"640 361 LINE",
"529 571 LINE",
"629 714 LINE",
"532 714 LINE",
"379 480 LINE",
"379 714 LINE",
"304 714 LINE",
"304 482 LINE",
"152 714 LINE",
"55 714 LINE",
"154 571 LINE",
"43 361 LINE",
"43 349 LINE",
"145 160 LINE",
"40 0 LINE"
);
},
{
closed = 1;
nodes = (
"120 353 LINE",
"120 357 LINE",
"196 506 LINE",
"289 372 LINE",
"188 225 LINE"
);
},
{
closed = 1;
nodes = (
"392 374 LINE",
"484 508 LINE",
"563 357 LINE",
"563 353 LINE",
"495 225 LINE"
);
}
);
width = 686;
}
);
unicode = 16E4;
},
{
glyphname = uni16E5;
lastChange = "2017-06-28 13:12:28 +0000";
layers = (
{
layerId = UUID0;
paths = (
{
closed = 1;
nodes = (
"180 0 LINE",
"366 129 LINE",
"555 0 LINE",
"633 0 LINE",
"633 714 LINE",
"555 714 LINE",
"366 584 LINE",
"180 714 LINE",
"97 714 LINE",
"97 0 LINE"
);
},
{
closed = 1;
nodes = (
"180 258 LINE",
"308 170 LINE",
"180 82 LINE"
);
},
{
closed = 1;
nodes = (
"424 170 LINE",
"555 261 LINE",
"555 79 LINE"
);
},
{
closed = 1;
nodes = (
"180 340 LINE",
"180 374 LINE",
"366 503 LINE",
"555 374 LINE",
"555 340 LINE",
"366 210 LINE"
);
},
{
closed = 1;
nodes = (
"180 632 LINE",
"308 544 LINE",
"180 456 LINE"
);
},
{
closed = 1;
nodes = (
"424 544 LINE",
"555 635 LINE",
"555 453 LINE"
);
}
);
width = 731;
}
);
unicode = 16E5;
},
{
glyphname = uni16E6;
lastChange = "2017-06-28 13:12:28 +0000";
layers = (
{
layerId = UUID0;
paths = (
{
closed = 1;
nodes = (
"110 0 LINE",
"131 105 OFFCURVE",
"175 180 OFFCURVE",
"283 195 CURVE",
"283 0 LINE",
"379 0 LINE",
"379 195 LINE",
"487 180 OFFCURVE",
"531 105 OFFCURVE",
"552 0 CURVE",
"647 0 LINE",
"615 198 OFFCURVE",
"496 263 OFFCURVE",
"379 274 CURVE",
"379 714 LINE",
"283 714 LINE",
"283 274 LINE",
"166 263 OFFCURVE",
"47 198 OFFCURVE",
"15 0 CURVE"
);
}
);
width = 662;
}
);
unicode = 16E6;
},
{
glyphname = uni16E7;
lastChange = "2017-06-28 13:12:28 +0000";
layers = (
{
layerId = UUID0;
paths = (
{
closed = 1;
nodes = (
"187 0 LINE",
"187 271 LINE",
"97 271 LINE",
"97 0 LINE"
);
}
);
width = 285;
}
);
unicode = 16E7;
},
{
glyphname = uni16E8;
lastChange = "2017-06-28 13:12:28 +0000";
layers = (
{
layerId = UUID0;
paths = (
{
closed = 1;
nodes = (
"304 0 LINE",
"478 95 LINE",
"448 157 LINE",
"304 80 LINE",
"304 630 LINE",
"442 560 LINE",
"477 621 LINE",
"304 714 LINE",
"214 714 LINE",
"40 621 LINE",
"76 561 LINE",
"214 635 LINE",
"214 83 LINE",
"81 162 LINE",
"45 99 LINE",
"214 0 LINE"
);
}
);
width = 519;
}
);
unicode = 16E8;
},
{
glyphname = uni16E9;
lastChange = "2017-06-28 13:12:28 +0000";
layers = (
{
layerId = UUID0;
paths = (
{
closed = 1;
nodes = (
"342 0 LINE",
"342 714 LINE",
"252 714 LINE",
"35 520 LINE",
"35 436 LINE",
"252 228 LINE",
"252 0 LINE"
);
},
{
closed = 1;
nodes = (
"109 479 LINE",
"252 614 LINE",
"252 336 LINE"
);
}
);
width = 439;
}
);
unicode = 16E9;
},
{
glyphname = uni16EA;
lastChange = "2017-06-28 13:12:28 +0000";
layers = (
{
layerId = UUID0;
paths = (
{
closed = 1;
nodes = (
"611 0 LINE",
"611 80 LINE",
"754 80 LINE",
"754 159 LINE",
"611 159 LINE",
"611 530 LINE",
"521 530 LINE",
"243 319 LINE",
"243 560 LINE",
"384 560 LINE",
"384 639 LINE",
"243 639 LINE",
"243 714 LINE",
"153 714 LINE",
"153 639 LINE",
"10 639 LINE",
"10 560 LINE",
"153 560 LINE",
"153 219 LINE",
"243 219 LINE",
"521 426 LINE",
"521 159 LINE",
"380 159 LINE",
"380 80 LINE",
"521 80 LINE",
"521 0 LINE"
);
}
);
width = 765;
}
);
unicode = 16EA;
},
{
glyphname = uni16EB;
lastChange = "2017-06-28 13:12:28 +0000";
layers = (
{
layerId = UUID0;
paths = (
{
closed = 1;
nodes = (
"233 266 OFFCURVE",
"272 295 OFFCURVE",
"272 365 CURVE SMOOTH",
"272 437 OFFCURVE",
"233 464 OFFCURVE",
"183 464 CURVE SMOOTH",
"133 464 OFFCURVE",
"94 437 OFFCURVE",
"94 365 CURVE SMOOTH",
"94 295 OFFCURVE",
"133 266 OFFCURVE",
"183 266 CURVE SMOOTH"
);
}
);
width = 366;
}
);
unicode = 16EB;
},
{
glyphname = uni16EC;
lastChange = "2017-06-28 13:12:28 +0000";
layers = (
{
layerId = UUID0;
paths = (
{
closed = 1;
nodes = (
"170 422 OFFCURVE",
"199 442 OFFCURVE",
"199 490 CURVE SMOOTH",
"199 540 OFFCURVE",
"170 558 OFFCURVE",
"136 558 CURVE SMOOTH",
"102 558 OFFCURVE",
"75 540 OFFCURVE",
"75 490 CURVE SMOOTH",
"75 442 OFFCURVE",
"102 422 OFFCURVE",
"136 422 CURVE SMOOTH"
);
},
{
closed = 1;
nodes = (
"170 174 OFFCURVE",
"199 194 OFFCURVE",
"199 242 CURVE SMOOTH",
"199 291 OFFCURVE",
"170 309 OFFCURVE",
"136 309 CURVE SMOOTH",
"102 309 OFFCURVE",
"75 291 OFFCURVE",
"75 242 CURVE SMOOTH",
"75 194 OFFCURVE",
"102 174 OFFCURVE",
"136 174 CURVE SMOOTH"
);
}
);
width = 277;
}
);
unicode = 16EC;
},
{
glyphname = uni16ED;
lastChange = "2017-06-28 13:12:28 +0000";
layers = (
{
layerId = UUID0;
paths = (
{
closed = 1;
nodes = (
"308 200 LINE",
"261 345 LINE",
"413 309 LINE",
"413 436 LINE",
"261 397 LINE",
"308 551 LINE",
"165 551 LINE",
"207 397 LINE",
"58 436 LINE",
"58 309 LINE",
"207 345 LINE",
"165 200 LINE"
);
}
);
width = 463;
}
);
unicode = 16ED;
},
{
glyphname = uni16EE;
lastChange = "2017-06-28 13:12:28 +0000";
layers = (
{
layerId = UUID0;
paths = (
{
closed = 1;
nodes = (
"304 0 LINE",
"304 632 LINE",
"437 555 LINE",
"472 615 LINE",
"304 714 LINE",
"214 714 LINE",
"214 386 LINE",
"40 293 LINE",
"76 233 LINE",
"214 307 LINE",
"214 0 LINE"
);
}
);
width = 513;
}
);
unicode = 16EE;
},
{
glyphname = uni16EF;
lastChange = "2017-06-28 13:12:28 +0000";
layers = (
{
layerId = UUID0;
paths = (
{
closed = 1;
nodes = (
"110 0 LINE",
"131 105 OFFCURVE",
"175 180 OFFCURVE",
"283 195 CURVE",
"283 0 LINE",
"379 0 LINE",
"379 195 LINE",
"487 180 OFFCURVE",
"531 105 OFFCURVE",
"552 0 CURVE",
"647 0 LINE",
"615 198 OFFCURVE",
"496 263 OFFCURVE",
"379 274 CURVE",
"379 440 LINE",
"496 451 OFFCURVE",
"615 516 OFFCURVE",
"647 714 CURVE",
"552 714 LINE",
"531 609 OFFCURVE",
"487 534 OFFCURVE",
"379 519 CURVE",
"379 714 LINE",
"283 714 LINE",
"283 519 LINE",
"175 534 OFFCURVE",
"131 609 OFFCURVE",
"110 714 CURVE",
"15 714 LINE",
"47 516 OFFCURVE",
"166 451 OFFCURVE",
"283 440 CURVE",
"283 274 LINE",
"166 263 OFFCURVE",
"47 198 OFFCURVE",
"15 0 CURVE"
);
}
);
width = 662;
}
);
unicode = 16EF;
},
{
glyphname = uni16F0;
lastChange = "2017-06-28 13:12:28 +0000";
layers = (
{
layerId = UUID0;
paths = (
{
closed = 1;
nodes = (
"346 0 LINE",
"346 133 LINE",
"465 136 OFFCURVE",
"552 225 OFFCURVE",
"552 356 CURVE SMOOTH",
"552 488 OFFCURVE",
"468 573 OFFCURVE",
"346 578 CURVE",
"346 714 LINE",
"256 714 LINE",
"256 578 LINE",
"134 573 OFFCURVE",
"50 488 OFFCURVE",
"50 356 CURVE SMOOTH",
"50 225 OFFCURVE",
"135 136 OFFCURVE",
"254 133 CURVE",
"254 0 LINE"
);
},
{
closed = 1;
nodes = (
"186 216 OFFCURVE",
"143 261 OFFCURVE",
"143 357 CURVE SMOOTH",
"143 449 OFFCURVE",
"185 494 OFFCURVE",
"256 504 CURVE",
"256 206 LINE"
);
},
{
closed = 1;
nodes = (
"346 504 LINE",
"417 494 OFFCURVE",
"459 449 OFFCURVE",
"459 357 CURVE SMOOTH",
"459 261 OFFCURVE",
"416 216 OFFCURVE",
"346 206 CURVE"
);
}
);
width = 602;
}
);
unicode = 16F0;
},
{
glyphname = uni16F1;
lastChange = "2017-06-28 13:12:28 +0000";
layers = (
{
layerId = UUID0;
paths = (
{
closed = 1;
nodes = (
"187 0 LINE",
"187 266 LINE",
"273 310 LINE",
"406 0 LINE",
"506 0 LINE",
"328 423 LINE",
"187 352 LINE",
"187 714 LINE",
"97 714 LINE",
"97 0 LINE"
);
}
);
width = 516;
}
);
unicode = 16F1;
},
{
glyphname = uni16F2;
lastChange = "2017-06-28 13:12:28 +0000";
layers = (
{
layerId = UUID0;
paths = (
{
closed = 1;
nodes = (
"187 0 LINE",
"187 385 LINE",
"365 233 LINE",
"455 233 LINE",
"455 714 LINE",
"365 714 LINE",
"365 346 LINE",
"187 500 LINE",
"97 500 LINE",
"97 0 LINE"
);
}
);
width = 552;
}
);
unicode = 16F2;
},
{
glyphname = uni16F3;
lastChange = "2017-06-28 13:12:28 +0000";
layers = (
{
layerId = UUID0;
paths = (
{
closed = 1;
nodes = (
"273 0 LINE",
"273 380 LINE",
"421 511 LINE",
"421 585 LINE",
"273 714 LINE",
"183 714 LINE",
"35 585 LINE",
"35 511 LINE",
"183 380 LINE",
"183 0 LINE"
);
},
{
closed = 1;
nodes = (
"96 548 LINE",
"183 626 LINE",
"183 469 LINE"
);
},
{
closed = 1;
nodes = (
"273 626 LINE",
"359 548 LINE",
"273 469 LINE"
);
}
);
width = 456;
}
);
unicode = 16F3;
},
{
glyphname = uni16F4;
lastChange = "2017-06-28 13:12:28 +0000";
layers = (
{
layerId = UUID0;
paths = (
{
closed = 1;
nodes = (
"455 0 LINE",
"455 386 LINE",
"518 410 LINE",
"490 482 LINE",
"455 468 LINE",
"455 510 LINE",
"365 510 LINE",
"365 433 LINE",
"187 365 LINE",
"187 714 LINE",
"97 714 LINE",
"97 330 LINE",
"35 306 LINE",
"62 237 LINE",
"97 250 LINE",
"97 209 LINE",
"187 209 LINE",
"187 284 LINE",
"365 352 LINE",
"365 0 LINE"
);
}
);
width = 553;
}
);
unicode = 16F4;
},
{
glyphname = uni16F5;
lastChange = "2017-06-28 13:12:28 +0000";
layers = (
{
layerId = UUID0;
paths = (
{
closed = 1;
nodes = (
"292 0 LINE",
"171 119 LINE",
"266 211 LINE",
"266 265 LINE",
"171 357 LINE",
"266 449 LINE",
"266 503 LINE",
"171 595 LINE",
"292 714 LINE",
"176 714 LINE",
"80 622 LINE",
"80 568 LINE",
"176 476 LINE",
"80 384 LINE",
"80 330 LINE",
"176 238 LINE",
"80 146 LINE",
"80 92 LINE",
"176 0 LINE"
);
}
);
width = 372;
}
);
unicode = 16F5;
},
{
glyphname = uni16F6;
lastChange = "2017-06-28 13:12:28 +0000";
layers = (
{
layerId = UUID0;
paths = (
{
closed = 1;
nodes = (
"439 0 LINE",
"289 348 LINE",
"424 445 LINE",
"378 507 LINE",
"258 420 LINE",
"132 714 LINE",
"35 714 LINE",
"186 367 LINE",
"50 268 LINE",
"95 209 LINE",
"216 296 LINE",
"346 0 LINE"
);
}
);
width = 474;
}
);
unicode = 16F6;
},
{
glyphname = uni16F7;
lastChange = "2017-06-28 13:12:28 +0000";
layers = (
{
layerId = UUID0;
paths = (
{
closed = 1;
nodes = (
"187 0 LINE",
"187 423 LINE",
"299 405 OFFCURVE",
"361 297 OFFCURVE",
"361 134 CURVE SMOOTH",
"361 0 LINE",
"454 0 LINE",
"454 128 LINE SMOOTH",
"454 415 OFFCURVE",
"283 502 OFFCURVE",
"187 506 CURVE",
"187 714 LINE",
"97 714 LINE",
"97 0 LINE"
);
}
);
width = 504;
}
);
unicode = 16F7;
},
{
glyphname = uni16F8;
lastChange = "2017-06-28 13:12:28 +0000";
layers = (
{
layerId = UUID0;
paths = (
{
closed = 1;
nodes = (
"118 0 LINE",
"284 240 LINE",
"448 0 LINE",
"556 0 LINE",
"328 328 LINE",
"328 714 LINE",
"238 714 LINE",
"238 328 LINE",
"10 0 LINE"
);
}
